<mxfile host="app.diagrams.net" modified="2023-11-01T03:59:36.824Z" agent="Mozilla/5.0 (Windows NT 10.0; Win64; x64) AppleWebKit/537.36 (KHTML, like Gecko) Chrome/118.0.0.0 Safari/537.36" etag="3EVLRCYJpxQsI9b2OUWj" version="22.0.8" type="device">
  <diagram name="Page-1" id="e56a1550-8fbb-45ad-956c-1786394a9013">
    <mxGraphModel dx="164" dy="91" grid="1" gridSize="10" guides="1" tooltips="1" connect="1" arrows="1" fold="1" page="1" pageScale="1" pageWidth="1100" pageHeight="850" background="none" math="0" shadow="0">
      <root>
        <mxCell id="0" />
        <mxCell id="1" parent="0" />
        <mxCell id="57uQK3LaM3aWzhius_OS-132" value="" style="rounded=0;whiteSpace=wrap;html=1;" vertex="1" parent="1">
          <mxGeometry x="40" y="600" width="150" height="40" as="geometry" />
        </mxCell>
        <mxCell id="57uQK3LaM3aWzhius_OS-1" value="Employee" style="rounded=0;whiteSpace=wrap;html=1;" vertex="1" parent="1">
          <mxGeometry x="110" y="120" width="130" height="30" as="geometry" />
        </mxCell>
        <mxCell id="57uQK3LaM3aWzhius_OS-5" value="Drug" style="rounded=0;whiteSpace=wrap;html=1;" vertex="1" parent="1">
          <mxGeometry x="401.25" y="660" width="67.5" height="30" as="geometry" />
        </mxCell>
        <mxCell id="57uQK3LaM3aWzhius_OS-8" value="Stock" style="rounded=0;whiteSpace=wrap;html=1;" vertex="1" parent="1">
          <mxGeometry x="45" y="605" width="140" height="30" as="geometry" />
        </mxCell>
        <mxCell id="57uQK3LaM3aWzhius_OS-9" value="Warehouse" style="rounded=0;whiteSpace=wrap;html=1;" vertex="1" parent="1">
          <mxGeometry x="127.5" y="290" width="95" height="30" as="geometry" />
        </mxCell>
        <mxCell id="57uQK3LaM3aWzhius_OS-10" value="Supplier" style="rounded=0;whiteSpace=wrap;html=1;" vertex="1" parent="1">
          <mxGeometry x="640" y="670" width="85" height="30" as="geometry" />
        </mxCell>
        <mxCell id="57uQK3LaM3aWzhius_OS-11" value="&lt;u&gt;EmployeeID&lt;/u&gt;" style="ellipse;whiteSpace=wrap;html=1;" vertex="1" parent="1">
          <mxGeometry y="60" width="110" height="40" as="geometry" />
        </mxCell>
        <mxCell id="57uQK3LaM3aWzhius_OS-13" value="EmployeeName" style="ellipse;whiteSpace=wrap;html=1;" vertex="1" parent="1">
          <mxGeometry x="70" y="20" width="110" height="40" as="geometry" />
        </mxCell>
        <mxCell id="57uQK3LaM3aWzhius_OS-14" value="ContactNo" style="ellipse;whiteSpace=wrap;html=1;" vertex="1" parent="1">
          <mxGeometry x="190" y="30" width="90" height="30" as="geometry" />
        </mxCell>
        <mxCell id="57uQK3LaM3aWzhius_OS-15" value="Email" style="ellipse;whiteSpace=wrap;html=1;" vertex="1" parent="1">
          <mxGeometry x="260" y="65" width="80" height="30" as="geometry" />
        </mxCell>
        <mxCell id="57uQK3LaM3aWzhius_OS-16" value="Works In" style="rhombus;whiteSpace=wrap;html=1;" vertex="1" parent="1">
          <mxGeometry x="135" y="200" width="80" height="50" as="geometry" />
        </mxCell>
        <mxCell id="57uQK3LaM3aWzhius_OS-19" value="" style="endArrow=none;html=1;rounded=0;entryX=0.5;entryY=1;entryDx=0;entryDy=0;exitX=0.5;exitY=0;exitDx=0;exitDy=0;" edge="1" parent="1" source="57uQK3LaM3aWzhius_OS-1" target="57uQK3LaM3aWzhius_OS-11">
          <mxGeometry width="50" height="50" relative="1" as="geometry">
            <mxPoint x="270" y="200" as="sourcePoint" />
            <mxPoint x="320" y="150" as="targetPoint" />
          </mxGeometry>
        </mxCell>
        <mxCell id="57uQK3LaM3aWzhius_OS-20" value="" style="endArrow=none;html=1;rounded=0;entryX=0.5;entryY=1;entryDx=0;entryDy=0;exitX=0.5;exitY=0;exitDx=0;exitDy=0;" edge="1" parent="1" source="57uQK3LaM3aWzhius_OS-1" target="57uQK3LaM3aWzhius_OS-13">
          <mxGeometry width="50" height="50" relative="1" as="geometry">
            <mxPoint x="190" y="100" as="sourcePoint" />
            <mxPoint x="65" y="110" as="targetPoint" />
          </mxGeometry>
        </mxCell>
        <mxCell id="57uQK3LaM3aWzhius_OS-21" value="" style="endArrow=none;html=1;rounded=0;exitX=0.5;exitY=0;exitDx=0;exitDy=0;entryX=0.5;entryY=1;entryDx=0;entryDy=0;" edge="1" parent="1" source="57uQK3LaM3aWzhius_OS-1" target="57uQK3LaM3aWzhius_OS-14">
          <mxGeometry width="50" height="50" relative="1" as="geometry">
            <mxPoint x="185" y="130" as="sourcePoint" />
            <mxPoint x="210" y="80" as="targetPoint" />
          </mxGeometry>
        </mxCell>
        <mxCell id="57uQK3LaM3aWzhius_OS-22" value="" style="endArrow=none;html=1;rounded=0;entryX=0.5;entryY=1;entryDx=0;entryDy=0;exitX=0.5;exitY=0;exitDx=0;exitDy=0;" edge="1" parent="1" source="57uQK3LaM3aWzhius_OS-1" target="57uQK3LaM3aWzhius_OS-15">
          <mxGeometry width="50" height="50" relative="1" as="geometry">
            <mxPoint x="195" y="140" as="sourcePoint" />
            <mxPoint x="295" y="100" as="targetPoint" />
          </mxGeometry>
        </mxCell>
        <mxCell id="57uQK3LaM3aWzhius_OS-26" value="&lt;u&gt;WarehouseID&lt;/u&gt;" style="ellipse;whiteSpace=wrap;html=1;" vertex="1" parent="1">
          <mxGeometry x="240" y="320" width="110" height="40" as="geometry" />
        </mxCell>
        <mxCell id="57uQK3LaM3aWzhius_OS-28" value="WarehouseName" style="ellipse;whiteSpace=wrap;html=1;" vertex="1" parent="1">
          <mxGeometry x="180" y="360" width="110" height="40" as="geometry" />
        </mxCell>
        <mxCell id="57uQK3LaM3aWzhius_OS-29" value="Location" style="ellipse;whiteSpace=wrap;html=1;" vertex="1" parent="1">
          <mxGeometry x="90" y="350" width="70" height="35" as="geometry" />
        </mxCell>
        <mxCell id="57uQK3LaM3aWzhius_OS-30" value="Capacity" style="ellipse;whiteSpace=wrap;html=1;" vertex="1" parent="1">
          <mxGeometry x="126" y="395" width="70" height="35" as="geometry" />
        </mxCell>
        <mxCell id="57uQK3LaM3aWzhius_OS-31" value="" style="endArrow=none;html=1;rounded=0;entryX=0.5;entryY=1;entryDx=0;entryDy=0;exitX=0;exitY=0.5;exitDx=0;exitDy=0;" edge="1" parent="1" source="57uQK3LaM3aWzhius_OS-26" target="57uQK3LaM3aWzhius_OS-9">
          <mxGeometry width="50" height="50" relative="1" as="geometry">
            <mxPoint x="200" y="270" as="sourcePoint" />
            <mxPoint x="250" y="220" as="targetPoint" />
          </mxGeometry>
        </mxCell>
        <mxCell id="57uQK3LaM3aWzhius_OS-32" value="" style="endArrow=none;html=1;rounded=0;entryX=0.5;entryY=1;entryDx=0;entryDy=0;exitX=0.5;exitY=0;exitDx=0;exitDy=0;" edge="1" parent="1" source="57uQK3LaM3aWzhius_OS-29" target="57uQK3LaM3aWzhius_OS-9">
          <mxGeometry width="50" height="50" relative="1" as="geometry">
            <mxPoint x="105" y="345" as="sourcePoint" />
            <mxPoint x="185" y="330" as="targetPoint" />
          </mxGeometry>
        </mxCell>
        <mxCell id="57uQK3LaM3aWzhius_OS-33" value="" style="endArrow=none;html=1;rounded=0;entryX=0.5;entryY=1;entryDx=0;entryDy=0;exitX=0.5;exitY=0;exitDx=0;exitDy=0;" edge="1" parent="1" source="57uQK3LaM3aWzhius_OS-30" target="57uQK3LaM3aWzhius_OS-9">
          <mxGeometry width="50" height="50" relative="1" as="geometry">
            <mxPoint x="150" y="390" as="sourcePoint" />
            <mxPoint x="185" y="330" as="targetPoint" />
          </mxGeometry>
        </mxCell>
        <mxCell id="57uQK3LaM3aWzhius_OS-34" value="" style="endArrow=none;html=1;rounded=0;entryX=0.5;entryY=1;entryDx=0;entryDy=0;exitX=0.5;exitY=0;exitDx=0;exitDy=0;" edge="1" parent="1" source="57uQK3LaM3aWzhius_OS-28" target="57uQK3LaM3aWzhius_OS-9">
          <mxGeometry width="50" height="50" relative="1" as="geometry">
            <mxPoint x="225" y="390" as="sourcePoint" />
            <mxPoint x="185" y="330" as="targetPoint" />
          </mxGeometry>
        </mxCell>
        <mxCell id="57uQK3LaM3aWzhius_OS-35" value="Orders" style="rounded=0;whiteSpace=wrap;html=1;" vertex="1" parent="1">
          <mxGeometry x="550" y="140" width="130" height="30" as="geometry" />
        </mxCell>
        <mxCell id="57uQK3LaM3aWzhius_OS-36" value="&lt;u&gt;OrderID&lt;/u&gt;" style="ellipse;whiteSpace=wrap;html=1;" vertex="1" parent="1">
          <mxGeometry x="440" y="80" width="110" height="40" as="geometry" />
        </mxCell>
        <mxCell id="57uQK3LaM3aWzhius_OS-37" value="OrderQuantity" style="ellipse;whiteSpace=wrap;html=1;" vertex="1" parent="1">
          <mxGeometry x="510" y="40" width="110" height="40" as="geometry" />
        </mxCell>
        <mxCell id="57uQK3LaM3aWzhius_OS-38" value="OrderDate" style="ellipse;whiteSpace=wrap;html=1;" vertex="1" parent="1">
          <mxGeometry x="630" y="40" width="110" height="40" as="geometry" />
        </mxCell>
        <mxCell id="57uQK3LaM3aWzhius_OS-39" value="DeliveryDate" style="ellipse;whiteSpace=wrap;html=1;" vertex="1" parent="1">
          <mxGeometry x="680" y="80" width="110" height="40" as="geometry" />
        </mxCell>
        <mxCell id="57uQK3LaM3aWzhius_OS-40" value="" style="endArrow=none;html=1;rounded=0;entryX=0.5;entryY=1;entryDx=0;entryDy=0;exitX=0.5;exitY=0;exitDx=0;exitDy=0;" edge="1" parent="1" source="57uQK3LaM3aWzhius_OS-35" target="57uQK3LaM3aWzhius_OS-36">
          <mxGeometry width="50" height="50" relative="1" as="geometry">
            <mxPoint x="710" y="220" as="sourcePoint" />
            <mxPoint x="760" y="170" as="targetPoint" />
          </mxGeometry>
        </mxCell>
        <mxCell id="57uQK3LaM3aWzhius_OS-41" value="" style="endArrow=none;html=1;rounded=0;entryX=0.5;entryY=1;entryDx=0;entryDy=0;exitX=0.5;exitY=0;exitDx=0;exitDy=0;" edge="1" parent="1" source="57uQK3LaM3aWzhius_OS-35" target="57uQK3LaM3aWzhius_OS-37">
          <mxGeometry width="50" height="50" relative="1" as="geometry">
            <mxPoint x="630" y="120" as="sourcePoint" />
            <mxPoint x="505" y="130" as="targetPoint" />
          </mxGeometry>
        </mxCell>
        <mxCell id="57uQK3LaM3aWzhius_OS-42" value="" style="endArrow=none;html=1;rounded=0;exitX=0.5;exitY=0;exitDx=0;exitDy=0;entryX=0.5;entryY=1;entryDx=0;entryDy=0;" edge="1" parent="1" source="57uQK3LaM3aWzhius_OS-35" target="57uQK3LaM3aWzhius_OS-38">
          <mxGeometry width="50" height="50" relative="1" as="geometry">
            <mxPoint x="625" y="150" as="sourcePoint" />
            <mxPoint x="650" y="100" as="targetPoint" />
          </mxGeometry>
        </mxCell>
        <mxCell id="57uQK3LaM3aWzhius_OS-43" value="" style="endArrow=none;html=1;rounded=0;entryX=0.5;entryY=1;entryDx=0;entryDy=0;exitX=0.5;exitY=0;exitDx=0;exitDy=0;" edge="1" parent="1" source="57uQK3LaM3aWzhius_OS-35" target="57uQK3LaM3aWzhius_OS-39">
          <mxGeometry width="50" height="50" relative="1" as="geometry">
            <mxPoint x="635" y="160" as="sourcePoint" />
            <mxPoint x="585" y="100" as="targetPoint" />
          </mxGeometry>
        </mxCell>
        <mxCell id="57uQK3LaM3aWzhius_OS-53" value="Status" style="ellipse;whiteSpace=wrap;html=1;" vertex="1" parent="1">
          <mxGeometry x="582.5" y="10" width="95" height="30" as="geometry" />
        </mxCell>
        <mxCell id="57uQK3LaM3aWzhius_OS-54" value="" style="endArrow=none;html=1;rounded=0;entryX=0.5;entryY=1;entryDx=0;entryDy=0;exitX=0.5;exitY=0;exitDx=0;exitDy=0;" edge="1" parent="1" source="57uQK3LaM3aWzhius_OS-35" target="57uQK3LaM3aWzhius_OS-53">
          <mxGeometry width="50" height="50" relative="1" as="geometry">
            <mxPoint x="620" y="110" as="sourcePoint" />
            <mxPoint x="695" y="90" as="targetPoint" />
          </mxGeometry>
        </mxCell>
        <mxCell id="57uQK3LaM3aWzhius_OS-55" value="Controls" style="rhombus;whiteSpace=wrap;html=1;rotation=-20;" vertex="1" parent="1">
          <mxGeometry x="300" y="160" width="90" height="50" as="geometry" />
        </mxCell>
        <mxCell id="57uQK3LaM3aWzhius_OS-57" value="" style="endArrow=none;html=1;rounded=0;entryX=0;entryY=0.5;entryDx=0;entryDy=0;exitX=1;exitY=0;exitDx=0;exitDy=0;" edge="1" parent="1" source="57uQK3LaM3aWzhius_OS-9" target="57uQK3LaM3aWzhius_OS-55">
          <mxGeometry width="50" height="50" relative="1" as="geometry">
            <mxPoint x="185" y="210" as="sourcePoint" />
            <mxPoint x="316.69885682970016" y="240" as="targetPoint" />
          </mxGeometry>
        </mxCell>
        <mxCell id="57uQK3LaM3aWzhius_OS-59" value="Customer" style="rounded=0;whiteSpace=wrap;html=1;" vertex="1" parent="1">
          <mxGeometry x="875" y="225" width="85" height="30" as="geometry" />
        </mxCell>
        <mxCell id="57uQK3LaM3aWzhius_OS-60" value="&lt;u&gt;CustomerID&lt;/u&gt;" style="ellipse;whiteSpace=wrap;html=1;" vertex="1" parent="1">
          <mxGeometry x="785" y="270" width="110" height="40" as="geometry" />
        </mxCell>
        <mxCell id="57uQK3LaM3aWzhius_OS-61" value="CustomerName" style="ellipse;whiteSpace=wrap;html=1;" vertex="1" parent="1">
          <mxGeometry x="985" y="270" width="110" height="40" as="geometry" />
        </mxCell>
        <mxCell id="57uQK3LaM3aWzhius_OS-62" value="Email" style="ellipse;whiteSpace=wrap;html=1;" vertex="1" parent="1">
          <mxGeometry x="860" y="315" width="70" height="35" as="geometry" />
        </mxCell>
        <mxCell id="57uQK3LaM3aWzhius_OS-63" value="Address" style="ellipse;whiteSpace=wrap;html=1;" vertex="1" parent="1">
          <mxGeometry x="950" y="315" width="70" height="35" as="geometry" />
        </mxCell>
        <mxCell id="57uQK3LaM3aWzhius_OS-64" value="" style="endArrow=none;html=1;rounded=0;entryX=0.5;entryY=1;entryDx=0;entryDy=0;exitX=0.5;exitY=0;exitDx=0;exitDy=0;" edge="1" parent="1" source="57uQK3LaM3aWzhius_OS-60" target="57uQK3LaM3aWzhius_OS-59">
          <mxGeometry width="50" height="50" relative="1" as="geometry">
            <mxPoint x="970" y="205" as="sourcePoint" />
            <mxPoint x="1020" y="155" as="targetPoint" />
          </mxGeometry>
        </mxCell>
        <mxCell id="57uQK3LaM3aWzhius_OS-65" value="" style="endArrow=none;html=1;rounded=0;entryX=0.5;entryY=1;entryDx=0;entryDy=0;exitX=0.5;exitY=0;exitDx=0;exitDy=0;" edge="1" parent="1" source="57uQK3LaM3aWzhius_OS-62" target="57uQK3LaM3aWzhius_OS-59">
          <mxGeometry width="50" height="50" relative="1" as="geometry">
            <mxPoint x="875" y="280" as="sourcePoint" />
            <mxPoint x="955" y="265" as="targetPoint" />
          </mxGeometry>
        </mxCell>
        <mxCell id="57uQK3LaM3aWzhius_OS-66" value="" style="endArrow=none;html=1;rounded=0;entryX=0.5;entryY=1;entryDx=0;entryDy=0;exitX=0.5;exitY=0;exitDx=0;exitDy=0;" edge="1" parent="1" source="57uQK3LaM3aWzhius_OS-63" target="57uQK3LaM3aWzhius_OS-59">
          <mxGeometry width="50" height="50" relative="1" as="geometry">
            <mxPoint x="920" y="325" as="sourcePoint" />
            <mxPoint x="955" y="265" as="targetPoint" />
          </mxGeometry>
        </mxCell>
        <mxCell id="57uQK3LaM3aWzhius_OS-67" value="" style="endArrow=none;html=1;rounded=0;entryX=0.5;entryY=1;entryDx=0;entryDy=0;exitX=0.5;exitY=0;exitDx=0;exitDy=0;" edge="1" parent="1" source="57uQK3LaM3aWzhius_OS-61" target="57uQK3LaM3aWzhius_OS-59">
          <mxGeometry width="50" height="50" relative="1" as="geometry">
            <mxPoint x="995" y="325" as="sourcePoint" />
            <mxPoint x="955" y="265" as="targetPoint" />
          </mxGeometry>
        </mxCell>
        <mxCell id="57uQK3LaM3aWzhius_OS-68" value="StreetName" style="ellipse;whiteSpace=wrap;html=1;" vertex="1" parent="1">
          <mxGeometry x="895" y="397.5" width="80" height="30" as="geometry" />
        </mxCell>
        <mxCell id="57uQK3LaM3aWzhius_OS-69" value="City" style="ellipse;whiteSpace=wrap;html=1;" vertex="1" parent="1">
          <mxGeometry x="1035" y="365" width="50" height="30" as="geometry" />
        </mxCell>
        <mxCell id="57uQK3LaM3aWzhius_OS-70" value="State" style="ellipse;whiteSpace=wrap;html=1;" vertex="1" parent="1">
          <mxGeometry x="885" y="362.5" width="65" height="25" as="geometry" />
        </mxCell>
        <mxCell id="57uQK3LaM3aWzhius_OS-71" value="AprtNo" style="ellipse;whiteSpace=wrap;html=1;" vertex="1" parent="1">
          <mxGeometry x="995" y="395" width="65" height="25" as="geometry" />
        </mxCell>
        <mxCell id="57uQK3LaM3aWzhius_OS-72" value="" style="endArrow=none;html=1;rounded=0;entryX=0.5;entryY=1;entryDx=0;entryDy=0;exitX=0.5;exitY=0;exitDx=0;exitDy=0;" edge="1" parent="1" source="57uQK3LaM3aWzhius_OS-68" target="57uQK3LaM3aWzhius_OS-63">
          <mxGeometry width="50" height="50" relative="1" as="geometry">
            <mxPoint x="905" y="325.5" as="sourcePoint" />
            <mxPoint x="955" y="265.5" as="targetPoint" />
          </mxGeometry>
        </mxCell>
        <mxCell id="57uQK3LaM3aWzhius_OS-73" value="" style="endArrow=none;html=1;rounded=0;entryX=0.5;entryY=1;entryDx=0;entryDy=0;exitX=0.5;exitY=0;exitDx=0;exitDy=0;" edge="1" parent="1" source="57uQK3LaM3aWzhius_OS-69" target="57uQK3LaM3aWzhius_OS-63">
          <mxGeometry width="50" height="50" relative="1" as="geometry">
            <mxPoint x="945" y="367.5" as="sourcePoint" />
            <mxPoint x="995" y="360.5" as="targetPoint" />
          </mxGeometry>
        </mxCell>
        <mxCell id="57uQK3LaM3aWzhius_OS-74" value="" style="endArrow=none;html=1;rounded=0;entryX=0.5;entryY=1;entryDx=0;entryDy=0;exitX=0.5;exitY=0;exitDx=0;exitDy=0;" edge="1" parent="1" source="57uQK3LaM3aWzhius_OS-71" target="57uQK3LaM3aWzhius_OS-63">
          <mxGeometry width="50" height="50" relative="1" as="geometry">
            <mxPoint x="1070" y="375.5" as="sourcePoint" />
            <mxPoint x="995" y="360.5" as="targetPoint" />
          </mxGeometry>
        </mxCell>
        <mxCell id="57uQK3LaM3aWzhius_OS-75" value="" style="endArrow=none;html=1;rounded=0;entryX=0.5;entryY=1;entryDx=0;entryDy=0;exitX=1;exitY=0;exitDx=0;exitDy=0;" edge="1" parent="1" source="57uQK3LaM3aWzhius_OS-70" target="57uQK3LaM3aWzhius_OS-63">
          <mxGeometry width="50" height="50" relative="1" as="geometry">
            <mxPoint x="1080" y="385.5" as="sourcePoint" />
            <mxPoint x="1005" y="370.5" as="targetPoint" />
          </mxGeometry>
        </mxCell>
        <mxCell id="57uQK3LaM3aWzhius_OS-76" value="Pharmacy" style="rounded=0;whiteSpace=wrap;html=1;" vertex="1" parent="1">
          <mxGeometry x="710" y="412.5" width="100" height="35" as="geometry" />
        </mxCell>
        <mxCell id="57uQK3LaM3aWzhius_OS-77" value="&lt;u&gt;PharmacyID&lt;/u&gt;" style="ellipse;whiteSpace=wrap;html=1;" vertex="1" parent="1">
          <mxGeometry x="615" y="460" width="110" height="40" as="geometry" />
        </mxCell>
        <mxCell id="57uQK3LaM3aWzhius_OS-78" value="PharmacyName" style="ellipse;whiteSpace=wrap;html=1;" vertex="1" parent="1">
          <mxGeometry x="810" y="460" width="110" height="40" as="geometry" />
        </mxCell>
        <mxCell id="57uQK3LaM3aWzhius_OS-80" value="Address" style="ellipse;whiteSpace=wrap;html=1;" vertex="1" parent="1">
          <mxGeometry x="685" y="500" width="70" height="35" as="geometry" />
        </mxCell>
        <mxCell id="57uQK3LaM3aWzhius_OS-81" value="" style="endArrow=none;html=1;rounded=0;entryX=0.5;entryY=1;entryDx=0;entryDy=0;exitX=0.5;exitY=0;exitDx=0;exitDy=0;" edge="1" parent="1" source="57uQK3LaM3aWzhius_OS-77" target="57uQK3LaM3aWzhius_OS-76">
          <mxGeometry width="50" height="50" relative="1" as="geometry">
            <mxPoint x="795" y="395" as="sourcePoint" />
            <mxPoint x="845" y="345" as="targetPoint" />
          </mxGeometry>
        </mxCell>
        <mxCell id="57uQK3LaM3aWzhius_OS-82" value="" style="endArrow=none;html=1;rounded=0;entryX=0.5;entryY=1;entryDx=0;entryDy=0;exitX=0.5;exitY=0;exitDx=0;exitDy=0;" edge="1" parent="1" source="57uQK3LaM3aWzhius_OS-80" target="57uQK3LaM3aWzhius_OS-76">
          <mxGeometry width="50" height="50" relative="1" as="geometry">
            <mxPoint x="720" y="505" as="sourcePoint" />
            <mxPoint x="780" y="455" as="targetPoint" />
          </mxGeometry>
        </mxCell>
        <mxCell id="57uQK3LaM3aWzhius_OS-84" value="" style="endArrow=none;html=1;rounded=0;entryX=0.5;entryY=1;entryDx=0;entryDy=0;exitX=0.5;exitY=0;exitDx=0;exitDy=0;" edge="1" parent="1" source="57uQK3LaM3aWzhius_OS-78" target="57uQK3LaM3aWzhius_OS-76">
          <mxGeometry width="50" height="50" relative="1" as="geometry">
            <mxPoint x="820" y="515" as="sourcePoint" />
            <mxPoint x="780" y="455" as="targetPoint" />
          </mxGeometry>
        </mxCell>
        <mxCell id="57uQK3LaM3aWzhius_OS-85" value="StreetName" style="ellipse;whiteSpace=wrap;html=1;" vertex="1" parent="1">
          <mxGeometry x="630" y="587.5" width="80" height="30" as="geometry" />
        </mxCell>
        <mxCell id="57uQK3LaM3aWzhius_OS-86" value="City" style="ellipse;whiteSpace=wrap;html=1;" vertex="1" parent="1">
          <mxGeometry x="760" y="557.5" width="50" height="30" as="geometry" />
        </mxCell>
        <mxCell id="57uQK3LaM3aWzhius_OS-87" value="State" style="ellipse;whiteSpace=wrap;html=1;" vertex="1" parent="1">
          <mxGeometry x="610" y="555" width="65" height="25" as="geometry" />
        </mxCell>
        <mxCell id="57uQK3LaM3aWzhius_OS-88" value="PostalCode" style="ellipse;whiteSpace=wrap;html=1;" vertex="1" parent="1">
          <mxGeometry x="720" y="587.5" width="70" height="32.5" as="geometry" />
        </mxCell>
        <mxCell id="57uQK3LaM3aWzhius_OS-89" value="" style="endArrow=none;html=1;rounded=0;entryX=0.5;entryY=1;entryDx=0;entryDy=0;exitX=0.5;exitY=0;exitDx=0;exitDy=0;" edge="1" parent="1" source="57uQK3LaM3aWzhius_OS-85" target="57uQK3LaM3aWzhius_OS-80">
          <mxGeometry width="50" height="50" relative="1" as="geometry">
            <mxPoint x="630" y="518" as="sourcePoint" />
            <mxPoint x="680" y="458" as="targetPoint" />
          </mxGeometry>
        </mxCell>
        <mxCell id="57uQK3LaM3aWzhius_OS-90" value="" style="endArrow=none;html=1;rounded=0;entryX=0.5;entryY=1;entryDx=0;entryDy=0;exitX=0.5;exitY=0;exitDx=0;exitDy=0;" edge="1" parent="1" source="57uQK3LaM3aWzhius_OS-86" target="57uQK3LaM3aWzhius_OS-80">
          <mxGeometry width="50" height="50" relative="1" as="geometry">
            <mxPoint x="670" y="560" as="sourcePoint" />
            <mxPoint x="720" y="553" as="targetPoint" />
          </mxGeometry>
        </mxCell>
        <mxCell id="57uQK3LaM3aWzhius_OS-91" value="" style="endArrow=none;html=1;rounded=0;entryX=0.5;entryY=1;entryDx=0;entryDy=0;exitX=0.5;exitY=0;exitDx=0;exitDy=0;" edge="1" parent="1" source="57uQK3LaM3aWzhius_OS-88" target="57uQK3LaM3aWzhius_OS-80">
          <mxGeometry width="50" height="50" relative="1" as="geometry">
            <mxPoint x="795" y="568" as="sourcePoint" />
            <mxPoint x="720" y="553" as="targetPoint" />
          </mxGeometry>
        </mxCell>
        <mxCell id="57uQK3LaM3aWzhius_OS-92" value="" style="endArrow=none;html=1;rounded=0;entryX=0.5;entryY=1;entryDx=0;entryDy=0;exitX=1;exitY=0;exitDx=0;exitDy=0;" edge="1" parent="1" source="57uQK3LaM3aWzhius_OS-87" target="57uQK3LaM3aWzhius_OS-80">
          <mxGeometry width="50" height="50" relative="1" as="geometry">
            <mxPoint x="805" y="578" as="sourcePoint" />
            <mxPoint x="730" y="563" as="targetPoint" />
          </mxGeometry>
        </mxCell>
        <mxCell id="57uQK3LaM3aWzhius_OS-93" value="Hospital" style="rounded=0;whiteSpace=wrap;html=1;" vertex="1" parent="1">
          <mxGeometry x="270" y="415" width="80" height="30" as="geometry" />
        </mxCell>
        <mxCell id="57uQK3LaM3aWzhius_OS-94" value="&lt;u&gt;HospitalID&lt;/u&gt;" style="ellipse;whiteSpace=wrap;html=1;" vertex="1" parent="1">
          <mxGeometry x="160" y="460" width="110" height="40" as="geometry" />
        </mxCell>
        <mxCell id="57uQK3LaM3aWzhius_OS-95" value="HospitalName" style="ellipse;whiteSpace=wrap;html=1;" vertex="1" parent="1">
          <mxGeometry x="350" y="460" width="110" height="40" as="geometry" />
        </mxCell>
        <mxCell id="57uQK3LaM3aWzhius_OS-96" value="Email" style="ellipse;whiteSpace=wrap;html=1;" vertex="1" parent="1">
          <mxGeometry x="225" y="505" width="70" height="35" as="geometry" />
        </mxCell>
        <mxCell id="57uQK3LaM3aWzhius_OS-97" value="Address" style="ellipse;whiteSpace=wrap;html=1;" vertex="1" parent="1">
          <mxGeometry x="315" y="505" width="70" height="35" as="geometry" />
        </mxCell>
        <mxCell id="57uQK3LaM3aWzhius_OS-98" value="" style="endArrow=none;html=1;rounded=0;entryX=0.5;entryY=1;entryDx=0;entryDy=0;exitX=0.5;exitY=0;exitDx=0;exitDy=0;" edge="1" parent="1" source="57uQK3LaM3aWzhius_OS-94" target="57uQK3LaM3aWzhius_OS-93">
          <mxGeometry width="50" height="50" relative="1" as="geometry">
            <mxPoint x="335" y="395" as="sourcePoint" />
            <mxPoint x="385" y="345" as="targetPoint" />
          </mxGeometry>
        </mxCell>
        <mxCell id="57uQK3LaM3aWzhius_OS-99" value="" style="endArrow=none;html=1;rounded=0;entryX=0.5;entryY=1;entryDx=0;entryDy=0;exitX=0.5;exitY=0;exitDx=0;exitDy=0;" edge="1" parent="1" source="57uQK3LaM3aWzhius_OS-96" target="57uQK3LaM3aWzhius_OS-93">
          <mxGeometry width="50" height="50" relative="1" as="geometry">
            <mxPoint x="240" y="470" as="sourcePoint" />
            <mxPoint x="320" y="455" as="targetPoint" />
          </mxGeometry>
        </mxCell>
        <mxCell id="57uQK3LaM3aWzhius_OS-100" value="" style="endArrow=none;html=1;rounded=0;entryX=0.5;entryY=1;entryDx=0;entryDy=0;exitX=0.5;exitY=0;exitDx=0;exitDy=0;" edge="1" parent="1" source="57uQK3LaM3aWzhius_OS-97" target="57uQK3LaM3aWzhius_OS-93">
          <mxGeometry width="50" height="50" relative="1" as="geometry">
            <mxPoint x="285" y="515" as="sourcePoint" />
            <mxPoint x="320" y="455" as="targetPoint" />
          </mxGeometry>
        </mxCell>
        <mxCell id="57uQK3LaM3aWzhius_OS-101" value="" style="endArrow=none;html=1;rounded=0;entryX=0.5;entryY=1;entryDx=0;entryDy=0;exitX=0.5;exitY=0;exitDx=0;exitDy=0;" edge="1" parent="1" source="57uQK3LaM3aWzhius_OS-95" target="57uQK3LaM3aWzhius_OS-93">
          <mxGeometry width="50" height="50" relative="1" as="geometry">
            <mxPoint x="360" y="515" as="sourcePoint" />
            <mxPoint x="320" y="455" as="targetPoint" />
          </mxGeometry>
        </mxCell>
        <mxCell id="57uQK3LaM3aWzhius_OS-102" value="StreetName" style="ellipse;whiteSpace=wrap;html=1;" vertex="1" parent="1">
          <mxGeometry x="270" y="582.5" width="80" height="30" as="geometry" />
        </mxCell>
        <mxCell id="57uQK3LaM3aWzhius_OS-103" value="City" style="ellipse;whiteSpace=wrap;html=1;" vertex="1" parent="1">
          <mxGeometry x="400" y="555" width="50" height="30" as="geometry" />
        </mxCell>
        <mxCell id="57uQK3LaM3aWzhius_OS-104" value="State" style="ellipse;whiteSpace=wrap;html=1;" vertex="1" parent="1">
          <mxGeometry x="250" y="552.5" width="65" height="25" as="geometry" />
        </mxCell>
        <mxCell id="57uQK3LaM3aWzhius_OS-105" value="Country" style="ellipse;whiteSpace=wrap;html=1;" vertex="1" parent="1">
          <mxGeometry x="360" y="585" width="65" height="25" as="geometry" />
        </mxCell>
        <mxCell id="57uQK3LaM3aWzhius_OS-106" value="" style="endArrow=none;html=1;rounded=0;entryX=0.5;entryY=1;entryDx=0;entryDy=0;exitX=0.5;exitY=0;exitDx=0;exitDy=0;" edge="1" parent="1" source="57uQK3LaM3aWzhius_OS-102" target="57uQK3LaM3aWzhius_OS-97">
          <mxGeometry width="50" height="50" relative="1" as="geometry">
            <mxPoint x="270" y="515.5" as="sourcePoint" />
            <mxPoint x="320" y="455.5" as="targetPoint" />
          </mxGeometry>
        </mxCell>
        <mxCell id="57uQK3LaM3aWzhius_OS-107" value="" style="endArrow=none;html=1;rounded=0;entryX=0.5;entryY=1;entryDx=0;entryDy=0;exitX=0.5;exitY=0;exitDx=0;exitDy=0;" edge="1" parent="1" source="57uQK3LaM3aWzhius_OS-103" target="57uQK3LaM3aWzhius_OS-97">
          <mxGeometry width="50" height="50" relative="1" as="geometry">
            <mxPoint x="310" y="557.5" as="sourcePoint" />
            <mxPoint x="360" y="550.5" as="targetPoint" />
          </mxGeometry>
        </mxCell>
        <mxCell id="57uQK3LaM3aWzhius_OS-108" value="" style="endArrow=none;html=1;rounded=0;entryX=0.5;entryY=1;entryDx=0;entryDy=0;exitX=0.5;exitY=0;exitDx=0;exitDy=0;" edge="1" parent="1" source="57uQK3LaM3aWzhius_OS-105" target="57uQK3LaM3aWzhius_OS-97">
          <mxGeometry width="50" height="50" relative="1" as="geometry">
            <mxPoint x="435" y="565.5" as="sourcePoint" />
            <mxPoint x="360" y="550.5" as="targetPoint" />
          </mxGeometry>
        </mxCell>
        <mxCell id="57uQK3LaM3aWzhius_OS-109" value="" style="endArrow=none;html=1;rounded=0;entryX=0.5;entryY=1;entryDx=0;entryDy=0;exitX=1;exitY=0;exitDx=0;exitDy=0;" edge="1" parent="1" source="57uQK3LaM3aWzhius_OS-104" target="57uQK3LaM3aWzhius_OS-97">
          <mxGeometry width="50" height="50" relative="1" as="geometry">
            <mxPoint x="445" y="575.5" as="sourcePoint" />
            <mxPoint x="370" y="560.5" as="targetPoint" />
          </mxGeometry>
        </mxCell>
        <mxCell id="57uQK3LaM3aWzhius_OS-112" value="Places" style="rhombus;whiteSpace=wrap;html=1;rotation=11;" vertex="1" parent="1">
          <mxGeometry x="727.5" y="170" width="90" height="50" as="geometry" />
        </mxCell>
        <mxCell id="57uQK3LaM3aWzhius_OS-114" value="Email" style="ellipse;whiteSpace=wrap;html=1;" vertex="1" parent="1">
          <mxGeometry x="760" y="500" width="70" height="35" as="geometry" />
        </mxCell>
        <mxCell id="57uQK3LaM3aWzhius_OS-116" value="" style="endArrow=none;html=1;rounded=0;entryX=0.5;entryY=1;entryDx=0;entryDy=0;exitX=0.5;exitY=0;exitDx=0;exitDy=0;" edge="1" parent="1" source="57uQK3LaM3aWzhius_OS-114" target="57uQK3LaM3aWzhius_OS-76">
          <mxGeometry width="50" height="50" relative="1" as="geometry">
            <mxPoint x="875" y="470" as="sourcePoint" />
            <mxPoint x="780" y="455" as="targetPoint" />
          </mxGeometry>
        </mxCell>
        <mxCell id="57uQK3LaM3aWzhius_OS-117" value="Places" style="rhombus;whiteSpace=wrap;html=1;rotation=51;" vertex="1" parent="1">
          <mxGeometry x="675" y="270" width="90" height="50" as="geometry" />
        </mxCell>
        <mxCell id="57uQK3LaM3aWzhius_OS-118" value="" style="endArrow=none;html=1;rounded=0;entryX=0.04;entryY=0.539;entryDx=0;entryDy=0;exitX=0.75;exitY=1;exitDx=0;exitDy=0;entryPerimeter=0;" edge="1" parent="1" target="57uQK3LaM3aWzhius_OS-117">
          <mxGeometry width="50" height="50" relative="1" as="geometry">
            <mxPoint x="645.5" y="170" as="sourcePoint" />
            <mxPoint x="689.6805824027574" y="260.0284317344363" as="targetPoint" />
          </mxGeometry>
        </mxCell>
        <mxCell id="57uQK3LaM3aWzhius_OS-119" value="" style="endArrow=none;html=1;rounded=0;entryX=0.75;entryY=1;entryDx=0;entryDy=0;exitX=0.025;exitY=0.533;exitDx=0;exitDy=0;exitPerimeter=0;" edge="1" parent="1" source="57uQK3LaM3aWzhius_OS-112" target="57uQK3LaM3aWzhius_OS-35">
          <mxGeometry width="50" height="50" relative="1" as="geometry">
            <mxPoint x="728.3267767448551" y="188.41359520805548" as="sourcePoint" />
            <mxPoint x="647.5" y="172" as="targetPoint" />
          </mxGeometry>
        </mxCell>
        <mxCell id="57uQK3LaM3aWzhius_OS-121" value="" style="endArrow=none;html=1;rounded=0;entryX=1;entryY=0.5;entryDx=0;entryDy=0;exitX=0.5;exitY=0;exitDx=0;exitDy=0;" edge="1" parent="1" source="57uQK3LaM3aWzhius_OS-76" target="57uQK3LaM3aWzhius_OS-117">
          <mxGeometry width="50" height="50" relative="1" as="geometry">
            <mxPoint x="658" y="180" as="sourcePoint" />
            <mxPoint x="677" y="290" as="targetPoint" />
          </mxGeometry>
        </mxCell>
        <mxCell id="57uQK3LaM3aWzhius_OS-122" value="Places" style="rhombus;whiteSpace=wrap;html=1;rotation=-55;" vertex="1" parent="1">
          <mxGeometry x="390" y="242.5" width="90" height="50" as="geometry" />
        </mxCell>
        <mxCell id="57uQK3LaM3aWzhius_OS-123" value="" style="endArrow=none;html=1;rounded=0;entryX=-0.002;entryY=0.41;entryDx=0;entryDy=0;entryPerimeter=0;exitX=0.972;exitY=0.469;exitDx=0;exitDy=0;exitPerimeter=0;" edge="1" parent="1" source="57uQK3LaM3aWzhius_OS-122" target="57uQK3LaM3aWzhius_OS-35">
          <mxGeometry width="50" height="50" relative="1" as="geometry">
            <mxPoint x="460" y="230" as="sourcePoint" />
            <mxPoint x="548.48" y="153.32999999999998" as="targetPoint" />
          </mxGeometry>
        </mxCell>
        <mxCell id="57uQK3LaM3aWzhius_OS-124" value="" style="endArrow=none;html=1;rounded=0;entryX=0.5;entryY=0;entryDx=0;entryDy=0;exitX=0.02;exitY=0.471;exitDx=0;exitDy=0;exitPerimeter=0;" edge="1" parent="1" source="57uQK3LaM3aWzhius_OS-122">
          <mxGeometry width="50" height="50" relative="1" as="geometry">
            <mxPoint x="407.1890603642029" y="304.36184199300465" as="sourcePoint" />
            <mxPoint x="308" y="415" as="targetPoint" />
          </mxGeometry>
        </mxCell>
        <mxCell id="57uQK3LaM3aWzhius_OS-125" value="" style="endArrow=none;html=1;rounded=0;entryX=0;entryY=1;entryDx=0;entryDy=0;exitX=1;exitY=0.5;exitDx=0;exitDy=0;" edge="1" parent="1" source="57uQK3LaM3aWzhius_OS-126" target="57uQK3LaM3aWzhius_OS-9">
          <mxGeometry width="50" height="50" relative="1" as="geometry">
            <mxPoint x="80" y="480" as="sourcePoint" />
            <mxPoint x="610" y="560" as="targetPoint" />
          </mxGeometry>
        </mxCell>
        <mxCell id="57uQK3LaM3aWzhius_OS-126" value="Contains" style="rhombus;whiteSpace=wrap;html=1;rotation=-75;" vertex="1" parent="1">
          <mxGeometry x="10" y="375" width="90" height="50" as="geometry" />
        </mxCell>
        <mxCell id="57uQK3LaM3aWzhius_OS-129" value="" style="endArrow=none;html=1;rounded=0;entryX=0;entryY=0.5;entryDx=0;entryDy=0;exitX=0.5;exitY=0;exitDx=0;exitDy=0;" edge="1" parent="1" source="57uQK3LaM3aWzhius_OS-132" target="57uQK3LaM3aWzhius_OS-126">
          <mxGeometry width="50" height="50" relative="1" as="geometry">
            <mxPoint x="110" y="560" as="sourcePoint" />
            <mxPoint x="310" y="485" as="targetPoint" />
          </mxGeometry>
        </mxCell>
        <mxCell id="57uQK3LaM3aWzhius_OS-130" value="DrugQuantity" style="ellipse;whiteSpace=wrap;html=1;" vertex="1" parent="1">
          <mxGeometry x="16" y="670" width="110" height="40" as="geometry" />
        </mxCell>
        <mxCell id="57uQK3LaM3aWzhius_OS-131" value="" style="endArrow=none;html=1;rounded=0;entryX=0.5;entryY=0;entryDx=0;entryDy=0;exitX=0.5;exitY=1;exitDx=0;exitDy=0;" edge="1" parent="1" source="57uQK3LaM3aWzhius_OS-132" target="57uQK3LaM3aWzhius_OS-130">
          <mxGeometry width="50" height="50" relative="1" as="geometry">
            <mxPoint x="125" y="657.5" as="sourcePoint" />
            <mxPoint x="80" y="667.5" as="targetPoint" />
          </mxGeometry>
        </mxCell>
        <mxCell id="57uQK3LaM3aWzhius_OS-133" value="Contains" style="rhombus;whiteSpace=wrap;html=1;rotation=-65;" vertex="1" parent="1">
          <mxGeometry x="520" y="387.5" width="90" height="50" as="geometry" />
        </mxCell>
        <mxCell id="57uQK3LaM3aWzhius_OS-137" value="" style="endArrow=none;html=1;rounded=0;entryX=0.5;entryY=1;entryDx=0;entryDy=0;exitX=1;exitY=0.5;exitDx=0;exitDy=0;" edge="1" parent="1" source="57uQK3LaM3aWzhius_OS-133" target="57uQK3LaM3aWzhius_OS-35">
          <mxGeometry width="50" height="50" relative="1" as="geometry">
            <mxPoint x="471" y="241" as="sourcePoint" />
            <mxPoint x="560" y="165" as="targetPoint" />
          </mxGeometry>
        </mxCell>
        <mxCell id="57uQK3LaM3aWzhius_OS-139" value="" style="endArrow=none;html=1;rounded=0;entryX=0;entryY=0.5;entryDx=0;entryDy=0;exitX=0.5;exitY=0;exitDx=0;exitDy=0;" edge="1" parent="1" source="57uQK3LaM3aWzhius_OS-5" target="57uQK3LaM3aWzhius_OS-133">
          <mxGeometry width="50" height="50" relative="1" as="geometry">
            <mxPoint x="350" y="545" as="sourcePoint" />
            <mxPoint x="310" y="485" as="targetPoint" />
          </mxGeometry>
        </mxCell>
        <mxCell id="57uQK3LaM3aWzhius_OS-140" value="Has" style="rhombus;whiteSpace=wrap;html=1;rotation=15;" vertex="1" parent="1">
          <mxGeometry x="250" y="620" width="90" height="50" as="geometry" />
        </mxCell>
        <mxCell id="57uQK3LaM3aWzhius_OS-141" value="" style="endArrow=none;html=1;rounded=0;entryX=1;entryY=0.5;entryDx=0;entryDy=0;exitX=0;exitY=0.5;exitDx=0;exitDy=0;" edge="1" parent="1" source="57uQK3LaM3aWzhius_OS-140" target="57uQK3LaM3aWzhius_OS-132">
          <mxGeometry width="50" height="50" relative="1" as="geometry">
            <mxPoint x="125" y="650" as="sourcePoint" />
            <mxPoint x="81" y="680" as="targetPoint" />
          </mxGeometry>
        </mxCell>
        <mxCell id="57uQK3LaM3aWzhius_OS-142" value="" style="endArrow=none;html=1;rounded=0;entryX=0;entryY=0.5;entryDx=0;entryDy=0;exitX=1;exitY=0.5;exitDx=0;exitDy=0;" edge="1" parent="1" source="57uQK3LaM3aWzhius_OS-140" target="57uQK3LaM3aWzhius_OS-5">
          <mxGeometry width="50" height="50" relative="1" as="geometry">
            <mxPoint x="262" y="658" as="sourcePoint" />
            <mxPoint x="200" y="630" as="targetPoint" />
          </mxGeometry>
        </mxCell>
        <mxCell id="57uQK3LaM3aWzhius_OS-143" value="&lt;u&gt;DrugID&lt;/u&gt;" style="ellipse;whiteSpace=wrap;html=1;" vertex="1" parent="1">
          <mxGeometry x="315" y="705" width="70" height="35" as="geometry" />
        </mxCell>
        <mxCell id="57uQK3LaM3aWzhius_OS-144" value="DrugName" style="ellipse;whiteSpace=wrap;html=1;" vertex="1" parent="1">
          <mxGeometry x="425" y="710" width="70" height="30" as="geometry" />
        </mxCell>
        <mxCell id="57uQK3LaM3aWzhius_OS-145" value="ExpiryDate" style="ellipse;whiteSpace=wrap;html=1;" vertex="1" parent="1">
          <mxGeometry x="369" y="731" width="70" height="30" as="geometry" />
        </mxCell>
        <mxCell id="57uQK3LaM3aWzhius_OS-146" value="" style="endArrow=none;html=1;rounded=0;entryX=0.5;entryY=0;entryDx=0;entryDy=0;exitX=0.5;exitY=1;exitDx=0;exitDy=0;" edge="1" parent="1" source="57uQK3LaM3aWzhius_OS-5" target="57uQK3LaM3aWzhius_OS-145">
          <mxGeometry width="50" height="50" relative="1" as="geometry">
            <mxPoint x="430" y="700" as="sourcePoint" />
            <mxPoint x="411" y="685" as="targetPoint" />
          </mxGeometry>
        </mxCell>
        <mxCell id="57uQK3LaM3aWzhius_OS-147" value="" style="endArrow=none;html=1;rounded=0;entryX=0.5;entryY=0;entryDx=0;entryDy=0;exitX=0.5;exitY=1;exitDx=0;exitDy=0;" edge="1" parent="1" source="57uQK3LaM3aWzhius_OS-5" target="57uQK3LaM3aWzhius_OS-143">
          <mxGeometry width="50" height="50" relative="1" as="geometry">
            <mxPoint x="441" y="699" as="sourcePoint" />
            <mxPoint x="415" y="750" as="targetPoint" />
          </mxGeometry>
        </mxCell>
        <mxCell id="57uQK3LaM3aWzhius_OS-148" value="" style="endArrow=none;html=1;rounded=0;exitX=0.5;exitY=0;exitDx=0;exitDy=0;entryX=0.5;entryY=1;entryDx=0;entryDy=0;" edge="1" parent="1" source="57uQK3LaM3aWzhius_OS-144" target="57uQK3LaM3aWzhius_OS-5">
          <mxGeometry width="50" height="50" relative="1" as="geometry">
            <mxPoint x="441" y="701" as="sourcePoint" />
            <mxPoint x="430" y="690" as="targetPoint" />
          </mxGeometry>
        </mxCell>
        <mxCell id="57uQK3LaM3aWzhius_OS-150" value="SupplierID" style="ellipse;whiteSpace=wrap;html=1;" vertex="1" parent="1">
          <mxGeometry x="585" y="750" width="70" height="30" as="geometry" />
        </mxCell>
        <mxCell id="57uQK3LaM3aWzhius_OS-151" value="SupplierName" style="ellipse;whiteSpace=wrap;html=1;" vertex="1" parent="1">
          <mxGeometry x="625" y="780" width="90" height="40" as="geometry" />
        </mxCell>
        <mxCell id="57uQK3LaM3aWzhius_OS-152" value="ContactNumber" style="ellipse;whiteSpace=wrap;html=1;" vertex="1" parent="1">
          <mxGeometry x="742.5" y="750" width="105" height="40" as="geometry" />
        </mxCell>
        <mxCell id="57uQK3LaM3aWzhius_OS-153" value="Email" style="ellipse;whiteSpace=wrap;html=1;" vertex="1" parent="1">
          <mxGeometry x="727.5" y="800" width="57.5" height="30" as="geometry" />
        </mxCell>
        <mxCell id="57uQK3LaM3aWzhius_OS-154" value="Address" style="ellipse;whiteSpace=wrap;html=1;" vertex="1" parent="1">
          <mxGeometry x="772.5" y="690" width="70" height="35" as="geometry" />
        </mxCell>
        <mxCell id="57uQK3LaM3aWzhius_OS-155" value="StreetName" style="ellipse;whiteSpace=wrap;html=1;" vertex="1" parent="1">
          <mxGeometry x="852.5" y="720" width="80" height="30" as="geometry" />
        </mxCell>
        <mxCell id="57uQK3LaM3aWzhius_OS-156" value="City" style="ellipse;whiteSpace=wrap;html=1;" vertex="1" parent="1">
          <mxGeometry x="920" y="660" width="50" height="30" as="geometry" />
        </mxCell>
        <mxCell id="57uQK3LaM3aWzhius_OS-157" value="State" style="ellipse;whiteSpace=wrap;html=1;" vertex="1" parent="1">
          <mxGeometry x="860" y="645" width="65" height="25" as="geometry" />
        </mxCell>
        <mxCell id="57uQK3LaM3aWzhius_OS-164" value="PostalCode" style="ellipse;whiteSpace=wrap;html=1;" vertex="1" parent="1">
          <mxGeometry x="400" y="515" width="70" height="35" as="geometry" />
        </mxCell>
        <mxCell id="57uQK3LaM3aWzhius_OS-165" value="" style="endArrow=none;html=1;rounded=0;entryX=0;entryY=0.5;entryDx=0;entryDy=0;exitX=0.5;exitY=1;exitDx=0;exitDy=0;" edge="1" parent="1" source="57uQK3LaM3aWzhius_OS-97" target="57uQK3LaM3aWzhius_OS-164">
          <mxGeometry width="50" height="50" relative="1" as="geometry">
            <mxPoint x="403" y="595" as="sourcePoint" />
            <mxPoint x="360" y="550" as="targetPoint" />
          </mxGeometry>
        </mxCell>
        <mxCell id="57uQK3LaM3aWzhius_OS-166" value="PostalCode" style="ellipse;whiteSpace=wrap;html=1;" vertex="1" parent="1">
          <mxGeometry x="950" y="427.5" width="80" height="30" as="geometry" />
        </mxCell>
        <mxCell id="57uQK3LaM3aWzhius_OS-168" value="" style="endArrow=none;html=1;rounded=0;entryX=0.5;entryY=0;entryDx=0;entryDy=0;exitX=0.5;exitY=1;exitDx=0;exitDy=0;" edge="1" parent="1" source="57uQK3LaM3aWzhius_OS-63" target="57uQK3LaM3aWzhius_OS-166">
          <mxGeometry width="50" height="50" relative="1" as="geometry">
            <mxPoint x="1038" y="405" as="sourcePoint" />
            <mxPoint x="995" y="360" as="targetPoint" />
          </mxGeometry>
        </mxCell>
        <mxCell id="57uQK3LaM3aWzhius_OS-170" value="" style="endArrow=none;html=1;rounded=0;entryX=0.5;entryY=1;entryDx=0;entryDy=0;exitX=0;exitY=0.5;exitDx=0;exitDy=0;" edge="1" parent="1" source="57uQK3LaM3aWzhius_OS-154" target="57uQK3LaM3aWzhius_OS-10">
          <mxGeometry width="50" height="50" relative="1" as="geometry">
            <mxPoint x="445" y="670" as="sourcePoint" />
            <mxPoint x="528" y="396" as="targetPoint" />
          </mxGeometry>
        </mxCell>
        <mxCell id="57uQK3LaM3aWzhius_OS-171" value="" style="endArrow=none;html=1;rounded=0;entryX=0.5;entryY=0;entryDx=0;entryDy=0;exitX=0.5;exitY=1;exitDx=0;exitDy=0;" edge="1" parent="1" source="57uQK3LaM3aWzhius_OS-10" target="57uQK3LaM3aWzhius_OS-150">
          <mxGeometry width="50" height="50" relative="1" as="geometry">
            <mxPoint x="455" y="680" as="sourcePoint" />
            <mxPoint x="538" y="406" as="targetPoint" />
          </mxGeometry>
        </mxCell>
        <mxCell id="57uQK3LaM3aWzhius_OS-173" value="" style="endArrow=none;html=1;rounded=0;entryX=0.5;entryY=0;entryDx=0;entryDy=0;exitX=0.5;exitY=1;exitDx=0;exitDy=0;" edge="1" parent="1" source="57uQK3LaM3aWzhius_OS-10" target="57uQK3LaM3aWzhius_OS-151">
          <mxGeometry width="50" height="50" relative="1" as="geometry">
            <mxPoint x="695" y="710" as="sourcePoint" />
            <mxPoint x="630" y="760" as="targetPoint" />
          </mxGeometry>
        </mxCell>
        <mxCell id="57uQK3LaM3aWzhius_OS-174" value="" style="endArrow=none;html=1;rounded=0;entryX=0;entryY=0;entryDx=0;entryDy=0;exitX=0.5;exitY=1;exitDx=0;exitDy=0;" edge="1" parent="1" source="57uQK3LaM3aWzhius_OS-10" target="57uQK3LaM3aWzhius_OS-153">
          <mxGeometry width="50" height="50" relative="1" as="geometry">
            <mxPoint x="695" y="710" as="sourcePoint" />
            <mxPoint x="680" y="790" as="targetPoint" />
          </mxGeometry>
        </mxCell>
        <mxCell id="57uQK3LaM3aWzhius_OS-175" value="" style="endArrow=none;html=1;rounded=0;entryX=0.041;entryY=0.305;entryDx=0;entryDy=0;exitX=0.5;exitY=1;exitDx=0;exitDy=0;entryPerimeter=0;" edge="1" parent="1" source="57uQK3LaM3aWzhius_OS-10" target="57uQK3LaM3aWzhius_OS-152">
          <mxGeometry width="50" height="50" relative="1" as="geometry">
            <mxPoint x="705" y="720" as="sourcePoint" />
            <mxPoint x="690" y="800" as="targetPoint" />
          </mxGeometry>
        </mxCell>
        <mxCell id="57uQK3LaM3aWzhius_OS-176" value="Supplies" style="rhombus;whiteSpace=wrap;html=1;rotation=0;" vertex="1" parent="1">
          <mxGeometry x="505" y="655" width="90" height="50" as="geometry" />
        </mxCell>
        <mxCell id="57uQK3LaM3aWzhius_OS-177" value="PostalCode" style="ellipse;whiteSpace=wrap;html=1;" vertex="1" parent="1">
          <mxGeometry x="915" y="695" width="80" height="30" as="geometry" />
        </mxCell>
        <mxCell id="57uQK3LaM3aWzhius_OS-178" value="" style="endArrow=none;html=1;rounded=0;entryX=1;entryY=0.5;entryDx=0;entryDy=0;exitX=0;exitY=0.5;exitDx=0;exitDy=0;" edge="1" parent="1" source="57uQK3LaM3aWzhius_OS-156" target="57uQK3LaM3aWzhius_OS-154">
          <mxGeometry width="50" height="50" relative="1" as="geometry">
            <mxPoint x="693" y="710" as="sourcePoint" />
            <mxPoint x="757" y="772" as="targetPoint" />
          </mxGeometry>
        </mxCell>
        <mxCell id="57uQK3LaM3aWzhius_OS-179" value="" style="endArrow=none;html=1;rounded=0;entryX=1;entryY=0.5;entryDx=0;entryDy=0;exitX=0;exitY=0.5;exitDx=0;exitDy=0;" edge="1" parent="1" source="57uQK3LaM3aWzhius_OS-177" target="57uQK3LaM3aWzhius_OS-154">
          <mxGeometry width="50" height="50" relative="1" as="geometry">
            <mxPoint x="930" y="685" as="sourcePoint" />
            <mxPoint x="853" y="718" as="targetPoint" />
          </mxGeometry>
        </mxCell>
        <mxCell id="57uQK3LaM3aWzhius_OS-180" value="" style="endArrow=none;html=1;rounded=0;entryX=1;entryY=0.5;entryDx=0;entryDy=0;exitX=0;exitY=0;exitDx=0;exitDy=0;" edge="1" parent="1" source="57uQK3LaM3aWzhius_OS-155" target="57uQK3LaM3aWzhius_OS-154">
          <mxGeometry width="50" height="50" relative="1" as="geometry">
            <mxPoint x="925" y="720" as="sourcePoint" />
            <mxPoint x="853" y="718" as="targetPoint" />
          </mxGeometry>
        </mxCell>
        <mxCell id="57uQK3LaM3aWzhius_OS-182" value="" style="endArrow=none;html=1;rounded=0;entryX=1;entryY=0.5;entryDx=0;entryDy=0;exitX=0;exitY=1;exitDx=0;exitDy=0;" edge="1" parent="1" source="57uQK3LaM3aWzhius_OS-157" target="57uQK3LaM3aWzhius_OS-154">
          <mxGeometry width="50" height="50" relative="1" as="geometry">
            <mxPoint x="930" y="685" as="sourcePoint" />
            <mxPoint x="853" y="718" as="targetPoint" />
          </mxGeometry>
        </mxCell>
        <mxCell id="57uQK3LaM3aWzhius_OS-183" value="" style="endArrow=none;html=1;rounded=0;entryX=1;entryY=0.5;entryDx=0;entryDy=0;exitX=0;exitY=0.5;exitDx=0;exitDy=0;" edge="1" parent="1" source="57uQK3LaM3aWzhius_OS-10" target="57uQK3LaM3aWzhius_OS-176">
          <mxGeometry width="50" height="50" relative="1" as="geometry">
            <mxPoint x="589" y="640" as="sourcePoint" />
            <mxPoint x="512" y="673" as="targetPoint" />
          </mxGeometry>
        </mxCell>
        <mxCell id="57uQK3LaM3aWzhius_OS-184" value="" style="endArrow=none;html=1;rounded=0;entryX=1;entryY=0.5;entryDx=0;entryDy=0;exitX=0;exitY=0.5;exitDx=0;exitDy=0;" edge="1" parent="1" source="57uQK3LaM3aWzhius_OS-176" target="57uQK3LaM3aWzhius_OS-5">
          <mxGeometry width="50" height="50" relative="1" as="geometry">
            <mxPoint x="950" y="705" as="sourcePoint" />
            <mxPoint x="873" y="738" as="targetPoint" />
          </mxGeometry>
        </mxCell>
        <mxCell id="57uQK3LaM3aWzhius_OS-186" value="" style="endArrow=none;html=1;rounded=0;exitX=0.528;exitY=0.037;exitDx=0;exitDy=0;exitPerimeter=0;entryX=0.544;entryY=1.023;entryDx=0;entryDy=0;entryPerimeter=0;" edge="1" parent="1" source="57uQK3LaM3aWzhius_OS-16">
          <mxGeometry width="50" height="50" relative="1" as="geometry">
            <mxPoint x="176.64000000000004" y="202.84999999999997" as="sourcePoint" />
            <mxPoint x="177.72000000000003" y="150.69" as="targetPoint" />
          </mxGeometry>
        </mxCell>
        <mxCell id="57uQK3LaM3aWzhius_OS-187" value="" style="endArrow=none;html=1;rounded=0;exitX=0.558;exitY=0.057;exitDx=0;exitDy=0;exitPerimeter=0;entryX=0.544;entryY=1.023;entryDx=0;entryDy=0;entryPerimeter=0;" edge="1" parent="1">
          <mxGeometry width="50" height="50" relative="1" as="geometry">
            <mxPoint x="172" y="202" as="sourcePoint" />
            <mxPoint x="173" y="150" as="targetPoint" />
          </mxGeometry>
        </mxCell>
        <mxCell id="57uQK3LaM3aWzhius_OS-188" value="" style="endArrow=none;html=1;rounded=0;entryX=0.544;entryY=1.023;entryDx=0;entryDy=0;entryPerimeter=0;" edge="1" parent="1">
          <mxGeometry width="50" height="50" relative="1" as="geometry">
            <mxPoint x="177" y="290" as="sourcePoint" />
            <mxPoint x="178.00000000000003" y="248" as="targetPoint" />
          </mxGeometry>
        </mxCell>
        <mxCell id="57uQK3LaM3aWzhius_OS-189" value="" style="endArrow=none;html=1;rounded=0;entryX=0.471;entryY=0.965;entryDx=0;entryDy=0;entryPerimeter=0;exitX=0.472;exitY=-0.018;exitDx=0;exitDy=0;exitPerimeter=0;" edge="1" parent="1" source="57uQK3LaM3aWzhius_OS-9" target="57uQK3LaM3aWzhius_OS-16">
          <mxGeometry width="50" height="50" relative="1" as="geometry">
            <mxPoint x="170" y="292" as="sourcePoint" />
            <mxPoint x="171.00000000000003" y="250" as="targetPoint" />
          </mxGeometry>
        </mxCell>
        <mxCell id="57uQK3LaM3aWzhius_OS-190" value="N" style="text;html=1;align=center;verticalAlign=middle;resizable=0;points=[];autosize=1;strokeColor=none;fillColor=none;rotation=0;" vertex="1" parent="1">
          <mxGeometry x="146" y="150" width="30" height="30" as="geometry" />
        </mxCell>
        <mxCell id="57uQK3LaM3aWzhius_OS-193" value="1" style="text;html=1;align=center;verticalAlign=middle;resizable=0;points=[];autosize=1;strokeColor=none;fillColor=none;rotation=0;" vertex="1" parent="1">
          <mxGeometry x="146" y="262.5" width="30" height="30" as="geometry" />
        </mxCell>
        <mxCell id="57uQK3LaM3aWzhius_OS-194" value="" style="endArrow=none;html=1;rounded=0;entryX=0;entryY=0.5;entryDx=0;entryDy=0;exitX=0.976;exitY=0.555;exitDx=0;exitDy=0;exitPerimeter=0;" edge="1" parent="1">
          <mxGeometry width="50" height="50" relative="1" as="geometry">
            <mxPoint x="386.19698726861395" y="171.93201176708953" as="sourcePoint" />
            <mxPoint x="550" y="151" as="targetPoint" />
          </mxGeometry>
        </mxCell>
        <mxCell id="57uQK3LaM3aWzhius_OS-195" value="" style="endArrow=none;html=1;rounded=0;entryX=-0.002;entryY=0.284;entryDx=0;entryDy=0;exitX=0.976;exitY=0.555;exitDx=0;exitDy=0;exitPerimeter=0;entryPerimeter=0;" edge="1" parent="1" target="57uQK3LaM3aWzhius_OS-35">
          <mxGeometry width="50" height="50" relative="1" as="geometry">
            <mxPoint x="385" y="169.5" as="sourcePoint" />
            <mxPoint x="549" y="148.5" as="targetPoint" />
          </mxGeometry>
        </mxCell>
        <mxCell id="57uQK3LaM3aWzhius_OS-196" value="M" style="text;html=1;align=center;verticalAlign=middle;resizable=0;points=[];autosize=1;strokeColor=none;fillColor=none;rotation=0;" vertex="1" parent="1">
          <mxGeometry x="200" y="262.5" width="30" height="30" as="geometry" />
        </mxCell>
        <mxCell id="57uQK3LaM3aWzhius_OS-197" value="N" style="text;html=1;align=center;verticalAlign=middle;resizable=0;points=[];autosize=1;strokeColor=none;fillColor=none;rotation=0;" vertex="1" parent="1">
          <mxGeometry x="511" y="130" width="30" height="30" as="geometry" />
        </mxCell>
        <mxCell id="57uQK3LaM3aWzhius_OS-198" value="" style="endArrow=none;html=1;rounded=0;entryX=0.003;entryY=0.147;entryDx=0;entryDy=0;exitX=0.966;exitY=0.531;exitDx=0;exitDy=0;entryPerimeter=0;exitPerimeter=0;" edge="1" parent="1" source="57uQK3LaM3aWzhius_OS-112" target="57uQK3LaM3aWzhius_OS-59">
          <mxGeometry width="50" height="50" relative="1" as="geometry">
            <mxPoint x="811" y="204" as="sourcePoint" />
            <mxPoint x="869" y="225" as="targetPoint" />
          </mxGeometry>
        </mxCell>
        <mxCell id="57uQK3LaM3aWzhius_OS-199" value="" style="endArrow=none;html=1;rounded=0;entryX=0.003;entryY=0.147;entryDx=0;entryDy=0;exitX=0.954;exitY=0.451;exitDx=0;exitDy=0;entryPerimeter=0;exitPerimeter=0;" edge="1" parent="1" source="57uQK3LaM3aWzhius_OS-112">
          <mxGeometry width="50" height="50" relative="1" as="geometry">
            <mxPoint x="811" y="200" as="sourcePoint" />
            <mxPoint x="875" y="225" as="targetPoint" />
          </mxGeometry>
        </mxCell>
        <mxCell id="57uQK3LaM3aWzhius_OS-200" value="" style="endArrow=none;html=1;rounded=0;entryX=0.829;entryY=0.984;entryDx=0;entryDy=0;exitX=0.014;exitY=0.472;exitDx=0;exitDy=0;exitPerimeter=0;entryPerimeter=0;" edge="1" parent="1" target="57uQK3LaM3aWzhius_OS-35">
          <mxGeometry width="50" height="50" relative="1" as="geometry">
            <mxPoint x="731.8307595895262" y="185.2797364854032" as="sourcePoint" />
            <mxPoint x="659.77" y="170.69" as="targetPoint" />
          </mxGeometry>
        </mxCell>
        <mxCell id="57uQK3LaM3aWzhius_OS-201" value="1" style="text;html=1;align=center;verticalAlign=middle;resizable=0;points=[];autosize=1;strokeColor=none;fillColor=none;" vertex="1" parent="1">
          <mxGeometry x="855" y="195" width="30" height="30" as="geometry" />
        </mxCell>
        <mxCell id="57uQK3LaM3aWzhius_OS-202" value="N" style="text;html=1;align=center;verticalAlign=middle;resizable=0;points=[];autosize=1;strokeColor=none;fillColor=none;" vertex="1" parent="1">
          <mxGeometry x="675" y="148" width="30" height="30" as="geometry" />
        </mxCell>
        <mxCell id="57uQK3LaM3aWzhius_OS-203" value="" style="endArrow=none;html=1;rounded=0;entryX=0;entryY=0.5;entryDx=0;entryDy=0;exitX=0.975;exitY=0.528;exitDx=0;exitDy=0;exitPerimeter=0;" edge="1" parent="1" source="57uQK3LaM3aWzhius_OS-122" target="57uQK3LaM3aWzhius_OS-35">
          <mxGeometry width="50" height="50" relative="1" as="geometry">
            <mxPoint x="460" y="233" as="sourcePoint" />
            <mxPoint x="549" y="157" as="targetPoint" />
          </mxGeometry>
        </mxCell>
        <mxCell id="57uQK3LaM3aWzhius_OS-205" value="" style="endArrow=none;html=1;rounded=0;entryX=0.51;entryY=0.012;entryDx=0;entryDy=0;exitX=0.02;exitY=0.471;exitDx=0;exitDy=0;exitPerimeter=0;entryPerimeter=0;" edge="1" parent="1" target="57uQK3LaM3aWzhius_OS-93">
          <mxGeometry width="50" height="50" relative="1" as="geometry">
            <mxPoint x="410" y="304" as="sourcePoint" />
            <mxPoint x="309" y="417" as="targetPoint" />
          </mxGeometry>
        </mxCell>
        <mxCell id="57uQK3LaM3aWzhius_OS-206" value="1" style="text;html=1;align=center;verticalAlign=middle;resizable=0;points=[];autosize=1;strokeColor=none;fillColor=none;rotation=-45;" vertex="1" parent="1">
          <mxGeometry x="290" y="387.5" width="30" height="30" as="geometry" />
        </mxCell>
        <mxCell id="57uQK3LaM3aWzhius_OS-207" value="N" style="text;html=1;align=center;verticalAlign=middle;resizable=0;points=[];autosize=1;strokeColor=none;fillColor=none;rotation=-45;" vertex="1" parent="1">
          <mxGeometry x="510" y="150" width="30" height="30" as="geometry" />
        </mxCell>
        <mxCell id="57uQK3LaM3aWzhius_OS-208" value="" style="endArrow=none;html=1;rounded=0;entryX=0.024;entryY=0.476;entryDx=0;entryDy=0;exitX=0.75;exitY=1;exitDx=0;exitDy=0;entryPerimeter=0;" edge="1" parent="1" target="57uQK3LaM3aWzhius_OS-117">
          <mxGeometry width="50" height="50" relative="1" as="geometry">
            <mxPoint x="648" y="170" as="sourcePoint" />
            <mxPoint x="692" y="260" as="targetPoint" />
          </mxGeometry>
        </mxCell>
        <mxCell id="57uQK3LaM3aWzhius_OS-209" value="" style="endArrow=none;html=1;rounded=0;entryX=0.96;entryY=0.536;entryDx=0;entryDy=0;exitX=0.5;exitY=0;exitDx=0;exitDy=0;entryPerimeter=0;" edge="1" parent="1" target="57uQK3LaM3aWzhius_OS-117">
          <mxGeometry width="50" height="50" relative="1" as="geometry">
            <mxPoint x="757" y="412.5" as="sourcePoint" />
            <mxPoint x="745" y="329.5" as="targetPoint" />
          </mxGeometry>
        </mxCell>
        <mxCell id="57uQK3LaM3aWzhius_OS-210" value="N" style="text;html=1;align=center;verticalAlign=middle;resizable=0;points=[];autosize=1;strokeColor=none;fillColor=none;rotation=60;" vertex="1" parent="1">
          <mxGeometry x="655" y="170" width="30" height="30" as="geometry" />
        </mxCell>
        <mxCell id="57uQK3LaM3aWzhius_OS-211" value="1" style="text;html=1;align=center;verticalAlign=middle;resizable=0;points=[];autosize=1;strokeColor=none;fillColor=none;rotation=90;" vertex="1" parent="1">
          <mxGeometry x="757.5" y="390" width="30" height="30" as="geometry" />
        </mxCell>
        <mxCell id="57uQK3LaM3aWzhius_OS-212" value="N" style="text;html=1;align=center;verticalAlign=middle;resizable=0;points=[];autosize=1;strokeColor=none;fillColor=none;rotation=-60;" vertex="1" parent="1">
          <mxGeometry x="420" y="630" width="30" height="30" as="geometry" />
        </mxCell>
        <mxCell id="57uQK3LaM3aWzhius_OS-213" value="M" style="text;html=1;align=center;verticalAlign=middle;resizable=0;points=[];autosize=1;strokeColor=none;fillColor=none;rotation=-75;" vertex="1" parent="1">
          <mxGeometry x="582.5" y="178" width="30" height="30" as="geometry" />
        </mxCell>
        <mxCell id="57uQK3LaM3aWzhius_OS-214" value="1" style="text;html=1;align=center;verticalAlign=middle;resizable=0;points=[];autosize=1;strokeColor=none;fillColor=none;" vertex="1" parent="1">
          <mxGeometry x="371.25" y="640" width="30" height="30" as="geometry" />
        </mxCell>
        <mxCell id="57uQK3LaM3aWzhius_OS-215" value="N" style="text;html=1;align=center;verticalAlign=middle;resizable=0;points=[];autosize=1;strokeColor=none;fillColor=none;" vertex="1" parent="1">
          <mxGeometry x="192.5" y="590" width="30" height="30" as="geometry" />
        </mxCell>
        <mxCell id="57uQK3LaM3aWzhius_OS-216" value="1" style="text;html=1;align=center;verticalAlign=middle;resizable=0;points=[];autosize=1;strokeColor=none;fillColor=none;" vertex="1" parent="1">
          <mxGeometry x="610" y="655" width="30" height="30" as="geometry" />
        </mxCell>
        <mxCell id="57uQK3LaM3aWzhius_OS-217" value="N" style="text;html=1;align=center;verticalAlign=middle;resizable=0;points=[];autosize=1;strokeColor=none;fillColor=none;" vertex="1" parent="1">
          <mxGeometry x="470" y="645" width="30" height="30" as="geometry" />
        </mxCell>
        <mxCell id="57uQK3LaM3aWzhius_OS-218" value="" style="endArrow=none;html=1;rounded=0;entryX=1;entryY=0.5;entryDx=0;entryDy=0;exitX=0.025;exitY=0.46;exitDx=0;exitDy=0;exitPerimeter=0;" edge="1" parent="1" source="57uQK3LaM3aWzhius_OS-176">
          <mxGeometry width="50" height="50" relative="1" as="geometry">
            <mxPoint x="505" y="677.5" as="sourcePoint" />
            <mxPoint x="469" y="672.5" as="targetPoint" />
          </mxGeometry>
        </mxCell>
        <mxCell id="57uQK3LaM3aWzhius_OS-219" value="" style="endArrow=none;html=1;rounded=0;entryX=0.969;entryY=0.54;entryDx=0;entryDy=0;exitX=0;exitY=0.5;exitDx=0;exitDy=0;entryPerimeter=0;" edge="1" parent="1" target="57uQK3LaM3aWzhius_OS-176">
          <mxGeometry width="50" height="50" relative="1" as="geometry">
            <mxPoint x="640" y="687.5" as="sourcePoint" />
            <mxPoint x="595" y="682.5" as="targetPoint" />
          </mxGeometry>
        </mxCell>
      </root>
    </mxGraphModel>
  </diagram>
</mxfile>
